<svg width="208" height="27" viewBox="0 0 208 27" fill="none" xmlns="http://www.w3.org/2000/svg">
<path d="M0.0532227 26.156V1.17065H4.15479V26.156H0.0532227ZM32.6511 26.156H27.6096L15.3732 6.21216H15.2194C15.265 6.88436 15.3049 7.59644 15.3391 8.34839C15.3846 9.10034 15.4188 9.87508 15.4416 10.6726C15.4758 11.4701 15.5043 12.2791 15.5271 13.0994V26.156H11.8015V1.17065H16.8088L29.028 20.9778H29.1477C29.1249 20.3967 29.0964 19.7302 29.0622 18.9783C29.028 18.2263 28.9938 17.4516 28.9597 16.6541C28.9369 15.8451 28.9198 15.0647 28.9084 14.3127V1.17065H32.6511V26.156Z" fill="#297D3B"/>
<path d="M40.2636 1.17065H47.6977C50.9219 1.17065 53.3544 1.63778 54.995 2.57202C56.6356 3.50627 57.456 5.11841 57.456 7.40845C57.456 8.36548 57.2851 9.23136 56.9433 10.0061C56.6129 10.7694 56.1286 11.4018 55.4906 11.9031C54.8526 12.393 54.0665 12.7234 53.1322 12.8943V13.0652C54.1006 13.2361 54.9608 13.538 55.7128 13.9709C56.4761 14.4039 57.0743 15.0248 57.5072 15.8337C57.9516 16.6427 58.1737 17.6908 58.1737 18.9783C58.1737 20.505 57.8091 21.8038 57.08 22.8748C56.3622 23.9457 55.3311 24.7603 53.9867 25.3186C52.6537 25.8769 51.0701 26.156 49.2357 26.156H40.2636V1.17065ZM44.3651 11.4758H48.2958C50.1529 11.4758 51.4403 11.1739 52.1581 10.5701C52.8759 9.96623 53.2348 9.08325 53.2348 7.92114C53.2348 6.73625 52.8075 5.88175 51.953 5.35767C51.1099 4.83358 49.7655 4.57153 47.9198 4.57153H44.3651V11.4758ZM44.3651 14.7913V22.7209H48.6889C50.6029 22.7209 51.9473 22.3507 52.7221 21.6101C53.4968 20.8695 53.8842 19.8669 53.8842 18.6023C53.8842 17.8276 53.7076 17.1554 53.3544 16.5857C53.0126 16.016 52.4486 15.5774 51.6625 15.2698C50.8764 14.9508 49.8168 14.7913 48.4838 14.7913H44.3651ZM84.004 1.17065V17.3376C84.004 19.0808 83.6337 20.6417 82.8932 22.0203C82.164 23.3988 81.0589 24.4926 79.5777 25.3015C78.0966 26.099 76.2338 26.4978 73.9894 26.4978C70.7879 26.4978 68.3497 25.6604 66.6749 23.9856C65.0115 22.2994 64.1798 20.0606 64.1798 17.2693V1.17065H68.2813V16.9104C68.2813 18.9954 68.7713 20.5334 69.7511 21.5247C70.7309 22.5159 72.1949 23.0115 74.1432 23.0115C75.4876 23.0115 76.5813 22.7779 77.4244 22.3108C78.2789 21.8323 78.9055 21.1373 79.3043 20.2258C79.7145 19.303 79.9195 18.1921 79.9195 16.8933V1.17065H84.004ZM105.869 19.3542C105.869 20.8354 105.505 22.1114 104.776 23.1824C104.058 24.2533 103.021 25.0736 101.665 25.6433C100.321 26.213 98.7145 26.4978 96.846 26.4978C95.9345 26.4978 95.063 26.4465 94.2312 26.344C93.3995 26.2415 92.6134 26.0933 91.8728 25.8997C91.1437 25.6946 90.4772 25.4496 89.8733 25.1648V21.3025C90.8873 21.7468 92.021 22.1513 93.2742 22.5159C94.5275 22.8691 95.8035 23.0457 97.1023 23.0457C98.1619 23.0457 99.0392 22.9089 99.7342 22.6355C100.441 22.3507 100.965 21.9519 101.306 21.4392C101.648 20.9151 101.819 20.3056 101.819 19.6106C101.819 18.87 101.62 18.2434 101.221 17.7307C100.822 17.218 100.218 16.7509 99.4095 16.3293C98.6119 15.8964 97.6093 15.435 96.4017 14.9451C95.5813 14.6147 94.7952 14.2387 94.0433 13.8171C93.3027 13.3956 92.6419 12.9 92.0608 12.3303C91.4798 11.7607 91.0184 11.0885 90.6766 10.3137C90.3462 9.52759 90.181 8.60474 90.181 7.54517C90.181 6.13241 90.5171 4.92472 91.1893 3.92212C91.8728 2.91951 92.8299 2.15047 94.0603 1.61499C95.3022 1.07951 96.7492 0.811768 98.4012 0.811768C99.7114 0.811768 100.942 0.948486 102.093 1.22192C103.255 1.49536 104.394 1.88273 105.511 2.38403L104.212 5.68237C103.186 5.26082 102.189 4.92472 101.221 4.67407C100.264 4.42342 99.2841 4.2981 98.2815 4.2981C97.4157 4.2981 96.6808 4.42912 96.077 4.69116C95.4731 4.95321 95.0117 5.32349 94.6927 5.802C94.3851 6.26912 94.2312 6.82739 94.2312 7.47681C94.2312 8.20597 94.4078 8.82121 94.761 9.32251C95.1256 9.81242 95.6839 10.2625 96.4358 10.6726C97.1992 11.0828 98.179 11.5385 99.3753 12.0398C100.754 12.6095 101.922 13.2076 102.879 13.8342C103.847 14.4609 104.588 15.2128 105.1 16.0901C105.613 16.956 105.869 18.044 105.869 19.3542ZM111.739 26.156V1.17065H115.84V26.156H111.739ZM144.337 26.156H139.295L127.059 6.21216H126.905C126.951 6.88436 126.99 7.59644 127.025 8.34839C127.07 9.10034 127.104 9.87508 127.127 10.6726C127.161 11.4701 127.19 12.2791 127.213 13.0994V26.156H123.487V1.17065H128.494L140.714 20.9778H140.833C140.81 20.3967 140.782 19.7302 140.748 18.9783C140.714 18.2263 140.679 17.4516 140.645 16.6541C140.622 15.8451 140.605 15.0647 140.594 14.3127V1.17065H144.337V26.156ZM166.1 26.156H151.949V1.17065H166.1V4.6228H156.051V11.4075H165.467V14.8425H156.051V22.6868H166.1V26.156ZM186.974 19.3542C186.974 20.8354 186.609 22.1114 185.88 23.1824C185.162 24.2533 184.125 25.0736 182.77 25.6433C181.425 26.213 179.819 26.4978 177.95 26.4978C177.039 26.4978 176.167 26.4465 175.336 26.344C174.504 26.2415 173.718 26.0933 172.977 25.8997C172.248 25.6946 171.581 25.4496 170.978 25.1648V21.3025C171.992 21.7468 173.125 22.1513 174.379 22.5159C175.632 22.8691 176.908 23.0457 178.207 23.0457C179.266 23.0457 180.143 22.9089 180.838 22.6355C181.545 22.3507 182.069 21.9519 182.411 21.4392C182.753 20.9151 182.923 20.3056 182.923 19.6106C182.923 18.87 182.724 18.2434 182.325 17.7307C181.927 17.218 181.323 16.7509 180.514 16.3293C179.716 15.8964 178.714 15.435 177.506 14.9451C176.686 14.6147 175.9 14.2387 175.148 13.8171C174.407 13.3956 173.746 12.9 173.165 12.3303C172.584 11.7607 172.123 11.0885 171.781 10.3137C171.45 9.52759 171.285 8.60474 171.285 7.54517C171.285 6.13241 171.621 4.92472 172.294 3.92212C172.977 2.91951 173.934 2.15047 175.165 1.61499C176.407 1.07951 177.853 0.811768 179.505 0.811768C180.816 0.811768 182.046 0.948486 183.197 1.22192C184.359 1.49536 185.498 1.88273 186.615 2.38403L185.316 5.68237C184.291 5.26082 183.294 4.92472 182.325 4.67407C181.368 4.42342 180.388 4.2981 179.386 4.2981C178.52 4.2981 177.785 4.42912 177.181 4.69116C176.577 4.95321 176.116 5.32349 175.797 5.802C175.489 6.26912 175.336 6.82739 175.336 7.47681C175.336 8.20597 175.512 8.82121 175.865 9.32251C176.23 9.81242 176.788 10.2625 177.54 10.6726C178.303 11.0828 179.283 11.5385 180.48 12.0398C181.858 12.6095 183.026 13.2076 183.983 13.8342C184.951 14.4609 185.692 15.2128 186.205 16.0901C186.717 16.956 186.974 18.044 186.974 19.3542ZM207.267 19.3542C207.267 20.8354 206.902 22.1114 206.173 23.1824C205.455 24.2533 204.419 25.0736 203.063 25.6433C201.718 26.213 200.112 26.4978 198.243 26.4978C197.332 26.4978 196.46 26.4465 195.629 26.344C194.797 26.2415 194.011 26.0933 193.27 25.8997C192.541 25.6946 191.875 25.4496 191.271 25.1648V21.3025C192.285 21.7468 193.418 22.1513 194.672 22.5159C195.925 22.8691 197.201 23.0457 198.5 23.0457C199.559 23.0457 200.437 22.9089 201.132 22.6355C201.838 22.3507 202.362 21.9519 202.704 21.4392C203.046 20.9151 203.217 20.3056 203.217 19.6106C203.217 18.87 203.017 18.2434 202.618 17.7307C202.22 17.218 201.616 16.7509 200.807 16.3293C200.009 15.8964 199.007 15.435 197.799 14.9451C196.979 14.6147 196.193 14.2387 195.441 13.8171C194.7 13.3956 194.039 12.9 193.458 12.3303C192.877 11.7607 192.416 11.0885 192.074 10.3137C191.744 9.52759 191.578 8.60474 191.578 7.54517C191.578 6.13241 191.915 4.92472 192.587 3.92212C193.27 2.91951 194.227 2.15047 195.458 1.61499C196.7 1.07951 198.147 0.811768 199.799 0.811768C201.109 0.811768 202.339 0.948486 203.49 1.22192C204.652 1.49536 205.791 1.88273 206.908 2.38403L205.609 5.68237C204.584 5.26082 203.587 4.92472 202.618 4.67407C201.661 4.42342 200.682 4.2981 199.679 4.2981C198.813 4.2981 198.078 4.42912 197.474 4.69116C196.871 4.95321 196.409 5.32349 196.09 5.802C195.783 6.26912 195.629 6.82739 195.629 7.47681C195.629 8.20597 195.805 8.82121 196.158 9.32251C196.523 9.81242 197.081 10.2625 197.833 10.6726C198.597 11.0828 199.576 11.5385 200.773 12.0398C202.151 12.6095 203.319 13.2076 204.276 13.8342C205.245 14.4609 205.985 15.2128 206.498 16.0901C207.011 16.956 207.267 18.044 207.267 19.3542Z" fill="#242222"/>
</svg>
